<?xml version="1.0" encoding="utf-8"?>
<!-- Generator: Adobe Illustrator 25.4.1, SVG Export Plug-In . SVG Version: 6.00 Build 0)  -->
<svg version="1.1" id="Layer_1" xmlns="http://www.w3.org/2000/svg" xmlns:xlink="http://www.w3.org/1999/xlink" x="0px" y="0px"
	 viewBox="0 0 25 25" style="enable-background:new 0 0 25 25;" xml:space="preserve">
<style type="text/css">
	.st0{fill:#83D0BD;}
	.st1{opacity:0.75;fill:#FFFFFF;}
</style>
<circle class="st0" cx="12.5" cy="12.5" r="12.1"/>
<g>
	<path class="st1" d="M13,13h-0.7c-0.1,0-0.2,0.1-0.2,0.2v3.9c0,0.1,0.1,0.2,0.2,0.2H13c0.1,0,0.2-0.1,0.2-0.2v-3.9
		C13.3,13.1,13.2,13,13,13z"/>
	<path class="st1" d="M13.6,11.9h0.5c0.2,0,0.4,0.2,0.4,0.4v0.2c0,0.2-0.2,0.4-0.4,0.4h-0.5c-0.2,0-0.4-0.2-0.4-0.4v-0.2
		C13.2,12,13.4,11.9,13.6,11.9z"/>
	<path class="st1" d="M13.9,9.9l0.5,0.2c0.2,0.1,0.3,0.3,0.2,0.5l-0.1,0.2c-0.1,0.2-0.3,0.3-0.5,0.2l-0.5-0.2
		c-0.2-0.1-0.3-0.3-0.2-0.5l0.1-0.2C13.5,10,13.7,9.9,13.9,9.9z"/>
	<path class="st1" d="M14.8,8.2l0.4,0.3c0.2,0.1,0.2,0.4,0.1,0.5l-0.1,0.2c-0.1,0.2-0.4,0.2-0.5,0.1l-0.4-0.3
		C14,8.8,14,8.6,14.1,8.4l0.1-0.2C14.4,8.1,14.6,8.1,14.8,8.2z"/>
	<path class="st1" d="M16,6.7l0.4,0.4c0.1,0.1,0.1,0.4,0,0.5l-0.1,0.1c-0.1,0.1-0.4,0.1-0.5,0l-0.4-0.4c-0.1-0.1-0.1-0.4,0-0.5
		l0.1-0.1C15.6,6.6,15.9,6.6,16,6.7z"/>
	<path class="st1" d="M17.5,5.6L17.8,6c0.1,0.2,0.1,0.4-0.1,0.5l-0.2,0.1c-0.2,0.1-0.4,0.1-0.5-0.1l-0.3-0.4
		c-0.1-0.2-0.1-0.4,0.1-0.5L17,5.5C17.2,5.4,17.4,5.4,17.5,5.6z"/>
	<path class="st1" d="M19.6,5.2l0.1,0.5c0,0.2-0.1,0.4-0.3,0.4l-0.2,0c-0.2,0-0.4-0.1-0.4-0.3l-0.1-0.5c0-0.2,0.1-0.4,0.3-0.4l0.2,0
		C19.4,4.9,19.5,5,19.6,5.2z"/>
	<path class="st1" d="M13.8,16.3c-0.1,0-0.4-0.2-0.4-0.5c0-0.8,0-1.6,0-2.4c0.7,0.4,1,0.9,1,1.4c0,0.3-0.1,0.4-0.1,0.8
		c-0.1,0.4-0.1,0.6-0.2,0.7c0,0.1,0,0.3,0,0.4c0,0.1-0.1,0.1-0.1,0.1v-0.4C13.9,16.3,13.9,16.3,13.8,16.3z"/>
	<path class="st1" d="M11.8,11.9h-0.5c-0.2,0-0.4,0.2-0.4,0.4v0.2c0,0.2,0.2,0.4,0.4,0.4h0.5c0.2,0,0.4-0.2,0.4-0.4v-0.2
		C12.2,12,12,11.9,11.8,11.9z"/>
	<path class="st1" d="M11.5,9.9L11,10.1c-0.2,0.1-0.3,0.3-0.2,0.5l0.1,0.2c0.1,0.2,0.3,0.3,0.5,0.2l0.5-0.2c0.2-0.1,0.3-0.3,0.2-0.5
		L12,10.2C11.9,10,11.7,9.9,11.5,9.9z"/>
	<path class="st1" d="M10.6,8.2l-0.4,0.3C10,8.6,10,8.9,10.1,9l0.1,0.2c0.1,0.2,0.4,0.2,0.5,0.1l0.4-0.3c0.2-0.1,0.2-0.4,0.1-0.5
		l-0.1-0.2C11,8.1,10.8,8.1,10.6,8.2z"/>
	<path class="st1" d="M9.4,6.7L9,7.1C8.9,7.3,8.9,7.5,9,7.6l0.1,0.1c0.1,0.1,0.4,0.1,0.5,0l0.4-0.4c0.1-0.1,0.1-0.4,0-0.5L9.9,6.7
		C9.8,6.6,9.5,6.6,9.4,6.7z"/>
	<path class="st1" d="M7.9,5.6L7.6,6C7.5,6.2,7.5,6.4,7.7,6.5l0.2,0.1C8,6.8,8.2,6.7,8.4,6.5l0.3-0.4c0.1-0.2,0.1-0.4-0.1-0.5
		L8.4,5.5C8.2,5.4,8,5.4,7.9,5.6z"/>
	<path class="st1" d="M5.8,5.2L5.8,5.7c0,0.2,0.1,0.4,0.3,0.4l0.2,0c0.2,0,0.4-0.1,0.4-0.3l0.1-0.5c0-0.2-0.1-0.4-0.3-0.4l-0.2,0
		C6,4.9,5.9,5,5.8,5.2z"/>
	<path class="st1" d="M11.6,16.3c0.1,0,0.4-0.2,0.4-0.5c0-0.8,0-1.6,0-2.4c-0.7,0.4-1,0.9-1,1.4c0,0.3,0.1,0.4,0.1,0.8
		c0.1,0.4,0.1,0.6,0.2,0.7c0,0.1,0,0.3,0,0.4c0,0.1,0.1,0.1,0.1,0.1v-0.4C11.5,16.3,11.5,16.3,11.6,16.3z"/>
	<path class="st1" d="M13.6,16.5c0,0-0.3,0-0.2,0.1c0.1,0.2,0.2,0.6,0.2,0.9c0,0.2,0,0.6-0.1,0.8c-0.1,0.2-0.5,0.2-0.8,0.2
		s-0.7,0-0.8-0.2c-0.1-0.2-0.1-0.6-0.1-0.8c0-0.3,0.1-0.7,0.2-0.9c0-0.1-0.2-0.1-0.2-0.1c-0.2,1-0.2,3.9-0.2,4.9
		c0,0.9,0.8,0.9,1.1,0.9h0.1c0.3,0,1.1,0,1.1-0.9C13.9,20.4,13.8,17.5,13.6,16.5z M12.8,21.9c-0.5,0-0.9-0.4-0.9-0.8
		s0.4-0.8,0.9-0.8s0.9,0.4,0.9,0.8S13.2,21.9,12.8,21.9z"/>
</g>
</svg>
